<?xml version="1.0" standalone="no"?>
<!DOCTYPE svg PUBLIC "-//W3C//DTD SVG 20010904//EN"
 "http://www.w3.org/TR/2001/REC-SVG-20010904/DTD/svg10.dtd">
<svg version="1.0" xmlns="http://www.w3.org/2000/svg"
 width="377.000000pt" height="368.000000pt" viewBox="0 0 377.000000 368.000000"
 preserveAspectRatio="xMidYMid meet">
<metadata>
Created by potrace 1.15, written by Peter Selinger 2001-2017
</metadata>
<g transform="translate(0.000000,368.000000) scale(0.100000,-0.100000)"
fill="#000000" stroke="none">
<path d="M1736 3384 c-63 -20 -149 -103 -167 -162 l-12 -42 -56 0 c-126 -1
-211 -84 -211 -207 0 -91 72 -183 156 -199 l34 -6 0 -129 c0 -108 2 -129 15
-129 13 0 15 21 15 130 0 124 1 130 20 130 45 0 137 66 152 109 2 7 22 4 53
-6 28 -9 56 -18 63 -19 9 -3 12 -46 12 -174 0 -144 2 -170 15 -170 13 0 15 26
15 170 l0 170 28 5 c59 13 126 51 163 94 96 108 90 262 -14 365 -80 80 -173
103 -281 70z m184 -35 c194 -88 198 -353 6 -440 -51 -23 -86 -25 -86 -3 0 9
27 50 60 91 56 71 72 103 51 103 -5 0 -31 -28 -58 -61 l-48 -62 -3 157 c-2
119 -6 157 -15 153 -8 -2 -14 -37 -17 -101 l-5 -97 -38 46 c-34 40 -57 51 -57
25 0 -5 23 -33 50 -63 l50 -55 0 -76 c0 -72 -1 -76 -22 -76 -70 1 -157 74
-188 157 -24 64 -25 84 -5 149 41 138 196 211 325 153z m-374 -207 c6 -4 14
-30 17 -59 7 -61 28 -106 69 -150 l30 -31 -22 -31 c-33 -47 -130 -91 -130 -60
0 6 20 35 45 63 40 48 57 86 38 86 -4 0 -24 -19 -45 -42 l-37 -43 -1 113 c0
86 -3 113 -12 110 -8 -3 -15 -31 -18 -72 l-5 -68 -23 31 c-12 17 -27 31 -32
31 -22 0 -8 -38 25 -70 32 -31 35 -39 35 -93 l0 -59 -32 6 c-64 13 -128 98
-128 168 0 39 29 106 56 130 47 42 136 63 170 40z"/>
<path d="M2240 3164 c-105 -46 -150 -172 -101 -281 22 -48 87 -99 137 -109
l34 -6 0 -129 c0 -108 2 -129 15 -129 13 0 15 21 15 130 0 124 1 130 20 130
28 0 90 33 117 62 70 74 70 212 0 286 -55 59 -160 79 -237 46z m166 -35 c99
-47 126 -175 57 -265 -35 -46 -123 -84 -123 -53 0 6 21 37 46 69 57 73 51 106
-7 39 l-38 -44 -1 113 c0 86 -3 113 -12 110 -8 -3 -15 -31 -18 -72 l-5 -68
-30 33 c-45 52 -46 10 -1 -43 32 -37 36 -48 36 -99 l0 -58 -30 9 c-128 37
-173 196 -82 294 55 58 134 71 208 35z"/>
<path d="M1350 2435 c-14 -8 -33 -14 -42 -15 -10 0 -18 -5 -18 -10 0 -20 32
-23 66 -6 42 20 81 20 114 1 14 -8 39 -14 55 -14 17 0 41 6 55 14 14 8 39 14
55 14 17 0 41 -6 55 -14 14 -8 39 -14 55 -14 17 0 41 6 55 14 33 19 74 19 112
-1 33 -17 73 -15 125 7 29 12 40 11 88 -6 55 -18 58 -18 111 0 53 18 55 18
108 0 54 -18 56 -18 115 1 62 19 82 44 36 44 -13 0 -40 -8 -60 -17 -33 -16
-37 -16 -70 0 -45 21 -93 22 -146 1 -38 -16 -43 -16 -75 0 -44 20 -87 20 -142
-1 -40 -15 -46 -15 -78 0 -19 10 -49 17 -67 17 -17 0 -51 -7 -75 -17 -40 -15
-46 -15 -78 0 -19 10 -49 17 -67 17 -17 0 -51 -7 -75 -17 -40 -15 -46 -15 -78
0 -42 21 -100 21 -134 2z"/>
<path d="M1350 2325 c-14 -8 -33 -14 -42 -15 -10 0 -18 -7 -18 -15 0 -19 37
-19 70 0 14 8 39 14 55 14 17 0 41 -6 55 -14 14 -8 39 -14 55 -14 17 0 41 6
55 14 14 8 39 14 55 14 17 0 41 -6 55 -14 33 -19 74 -19 112 1 33 17 73 15
125 -7 29 -12 40 -11 87 5 55 19 76 18 133 -5 28 -12 40 -11 88 5 54 19 56 19
109 1 54 -18 56 -18 115 1 62 19 82 44 36 44 -13 0 -40 -8 -60 -17 -33 -16
-37 -16 -70 0 -20 9 -53 17 -75 17 -22 0 -55 -8 -75 -17 -33 -16 -37 -16 -70
0 -45 21 -88 22 -143 0 -40 -15 -46 -15 -78 0 -19 10 -49 17 -67 17 -17 0 -51
-7 -75 -17 -40 -15 -46 -15 -78 0 -19 10 -49 17 -67 17 -17 0 -51 -7 -75 -17
-40 -15 -46 -15 -78 0 -42 21 -100 21 -134 2z"/>
<path d="M1350 2215 c-14 -8 -33 -14 -42 -15 -10 0 -18 -5 -18 -10 0 -20 32
-23 66 -6 42 20 81 20 114 1 14 -8 39 -14 55 -14 17 0 41 6 55 14 14 8 39 14
55 14 17 0 41 -6 55 -14 14 -8 39 -14 55 -14 17 0 41 6 55 14 33 19 74 19 112
-1 33 -17 73 -15 125 7 29 12 40 11 88 -6 55 -18 58 -18 111 0 52 18 56 18
108 0 52 -18 55 -18 115 1 61 19 82 44 36 44 -13 0 -40 -8 -60 -17 -33 -16
-37 -16 -70 0 -20 9 -53 17 -75 17 -22 0 -55 -8 -75 -17 -33 -16 -37 -16 -70
0 -45 21 -88 22 -143 0 -40 -15 -46 -15 -78 0 -19 10 -49 17 -67 17 -17 0 -51
-7 -75 -17 -40 -15 -46 -15 -78 0 -19 10 -49 17 -67 17 -17 0 -51 -7 -75 -17
-40 -15 -46 -15 -78 0 -42 21 -100 21 -134 2z"/>
<path d="M2480 1737 c-104 -32 -166 -73 -224 -150 -41 -53 -57 -113 -57 -207
-1 -214 99 -309 411 -394 229 -63 288 -93 310 -162 27 -81 -27 -175 -116 -202
-69 -20 -183 -15 -272 13 -74 23 -180 82 -228 127 l-21 19 -67 -79 c-36 -44
-66 -84 -66 -89 0 -14 89 -78 170 -122 118 -63 212 -85 360 -86 106 0 136 4
199 24 128 42 231 138 263 245 7 23 12 80 12 127 0 78 -4 94 -33 153 -55 113
-153 172 -392 236 -120 32 -209 64 -247 88 -53 34 -70 138 -32 200 64 105 318
103 494 -3 32 -19 60 -34 61 -33 1 2 27 39 57 83 l56 81 -46 31 c-118 78 -234
113 -402 119 -100 4 -125 1 -190 -19z"/>
<path d="M660 1075 l0 -655 110 0 110 0 2 477 3 477 370 -477 370 -477 122 0
123 0 0 655 0 655 -110 0 -110 0 -2 -491 -3 -491 -380 491 -380 490 -112 0
-113 1 0 -655z"/>
</g>
</svg>
